 <svg  version="1.0" xmlns="http://www.w3.org/2000/svg"  width="258.000000pt" height="270.000000pt" viewBox="0 0 258.000000 270.000000"  preserveAspectRatio="xMidYMid meet">  <g transform="translate(0.000000,270.000000) scale(0.100000,-0.100000)" fill="#b76e86" stroke="none"> <path d="M423 1858 c-71 -63 -103 -99 -103 -114 0 -27 184 -199 201 -188 7 4 9 3 6 -4 -4 -5 24 -41 63 -78 38 -37 70 -75 70 -85 0 -10 -72 -82 -169 -169 -94 -83 -172 -157 -174 -163 -7 -22 5 -48 20 -43 8 3 11 1 8 -4 -9 -14 166 -180 191 -180 13 0 49 25 85 59 35 32 94 85 130 117 342 304 400 359 397 385 -2 18 -66 83 -248 249 -135 123 -265 244 -290 267 -25 24 -54 43 -65 43 -11 0 -65 -41 -122 -92z m137 72 c0 -5 -6 -10 -14 -10 -7 0 -57 -39 -110 -86 -53 -47 -96 -82 -96 -77 0 5 43 48 95 96 88 80 125 103 125 77z m101 -102 c26 -26 49 -45 53 -43 3 3 4 2 1 -2 -7 -9 45 -63 60 -63 7 0 20 -10 31 -22 l19 -23 -25 20 -25 20 19 -23 c11 -12 26 -20 33 -18 7 3 12 2 11 -2 -4 -11 53 -67 64 -64 5 1 7 -2 3 -7 -3 -6 11 -21 30 -34 20 -14 36 -29 36 -33 0 -5 7 -8 16 -6 8 2 12 -1 9 -6 -7 -11 90 -98 105 -94 5 1 8 -1 7 -5 -1 -5 4 -19 11 -32 7 -13 8 -21 3 -17 -9 6 -178 -137 -212 -179 -14 -17 -13 -18 3 -12 11 4 16 3 12 -4 -4 -6 -14 -8 -23 -4 -16 6 -105 -72 -97 -85 2 -4 -2 -7 -10 -7 -20 0 -104 -75 -100 -89 2 -6 -15 -29 -37 -50 -23 -22 -37 -33 -33 -25 5 9 3 12 -6 9 -8 -3 -13 -10 -12 -16 2 -7 -4 -9 -14 -5 -12 5 -15 2 -10 -9 3 -10 -3 -24 -15 -35 -12 -10 -18 -12 -14 -6 5 9 1 13 -11 13 -11 0 -45 25 -76 55 -32 31 -62 53 -67 50 -6 -3 -7 1 -4 10 5 12 2 16 -12 13 -10 -2 -19 3 -19 10 0 7 -6 16 -13 21 -11 6 -10 10 5 16 10 5 21 7 25 7 5 -1 7 1 6 6 -3 10 47 62 61 62 6 0 11 5 11 11 0 5 5 7 12 3 6 -4 8 -3 5 3 -3 5 17 29 45 54 28 24 60 54 71 66 11 12 25 19 31 16 6 -3 8 -3 4 1 -4 4 8 21 27 37 39 35 50 68 33 108 -17 38 -195 204 -210 195 -7 -4 -8 -3 -4 4 6 11 -5 23 -87 94 -11 10 -24 15 -28 12 -38 -23 33 53 141 151 60 54 64 53 161 -47z m17 -462 c-9 -21 -83 -91 -300 -285 -21 -19 -41 -31 -44 -28 -3 2 71 73 165 157 93 84 172 158 175 166 3 8 8 14 10 14 3 0 1 -11 -6 -24z"/> <path d="M650 965 c-13 -14 -21 -27 -18 -30 2 -3 17 9 33 25 16 17 24 30 19 30 -6 0 -21 -11 -34 -25z"/> <path d="M1030 1859 c-67 -62 -100 -99 -100 -113 0 -25 105 -134 117 -122 4 4 1 11 -6 15 -11 7 -11 9 0 13 11 4 10 10 -5 27 -11 12 -25 20 -32 17 -8 -3 -11 1 -8 9 4 9 -6 21 -25 33 l-30 18 52 50 c97 93 148 135 158 132 6 -2 10 -7 9 -12 -1 -5 9 -14 21 -20 12 -6 20 -14 18 -18 -8 -13 43 -57 59 -51 10 4 13 2 8 -6 -5 -7 -2 -10 6 -9 7 2 12 -3 10 -10 -1 -8 2 -11 8 -7 5 3 10 -1 10 -9 0 -9 6 -16 13 -16 13 0 22 -10 65 -64 12 -16 22 -26 22 -23 0 2 23 -17 52 -44 28 -26 56 -45 61 -42 6 3 7 1 4 -4 -4 -6 12 -27 36 -47 23 -20 50 -45 60 -54 11 -9 23 -16 29 -14 5 1 7 -2 4 -6 -8 -14 31 -45 45 -36 7 4 10 3 6 -3 -7 -12 16 -36 26 -28 4 3 5 2 2 -2 -3 -3 0 -12 6 -20 9 -10 8 -13 -1 -13 -11 0 -50 -33 -224 -194 -22 -20 -44 -36 -49 -36 -5 0 -6 -7 -3 -16 3 -9 2 -12 -4 -9 -11 7 -134 -105 -125 -113 9 -9 -16 -31 -29 -26 -6 2 -23 -7 -36 -21 -22 -23 -22 -25 -5 -20 15 5 17 4 6 -3 -8 -6 -21 -8 -29 -4 -11 4 -14 1 -9 -11 3 -9 -1 -21 -11 -29 -15 -12 -16 -11 -3 5 7 9 9 17 4 17 -16 0 -46 -38 -39 -49 4 -5 1 -13 -5 -17 -8 -5 -9 -3 -4 6 6 10 0 12 -24 8 -22 -3 -30 -1 -27 8 6 16 -39 58 -54 49 -6 -3 -9 -1 -8 6 2 7 -2 13 -9 14 -6 0 -15 4 -20 9 -5 5 -3 6 5 2 6 -4 12 -4 12 -1 0 11 -53 50 -63 47 -5 -1 -6 2 -2 8 3 5 -1 13 -10 16 -12 5 -13 9 -4 21 7 7 18 12 26 9 8 -3 12 -2 9 3 -7 11 165 167 179 163 5 -2 7 -1 4 3 -4 3 16 27 44 53 29 26 57 54 64 62 16 19 16 62 2 92 -10 21 -209 209 -228 216 -4 1 -7 -7 -6 -20 1 -14 41 -59 110 -124 96 -89 108 -104 100 -122 -6 -11 -85 -89 -177 -172 -102 -91 -168 -158 -168 -169 0 -24 201 -211 226 -211 11 0 69 46 129 101 61 56 191 173 290 262 99 88 184 170 189 183 12 29 9 32 -124 152 -58 52 -185 169 -282 259 -107 98 -185 163 -198 163 -11 0 -63 -40 -120 -91z m252 -497 c-8 -22 -331 -317 -338 -309 -6 5 46 55 201 193 55 49 108 99 118 112 22 27 29 28 19 4z"/> <path d="M1632 1852 c-56 -53 -102 -101 -102 -107 1 -13 25 -45 35 -45 4 0 4 7 1 16 -4 10 5 26 22 42 82 80 144 132 150 128 4 -3 8 4 8 14 0 14 -14 6 -59 -33 -105 -93 -140 -122 -136 -111 6 17 192 184 204 184 5 0 34 -25 64 -55 29 -30 58 -55 64 -55 6 0 8 -3 5 -6 -7 -7 24 -42 33 -38 4 2 15 -6 25 -18 11 -12 13 -18 7 -14 -7 4 -13 5 -13 1 0 -3 11 -10 25 -15 14 -5 25 -16 25 -25 0 -8 4 -15 8 -15 5 0 34 -25 65 -56 31 -31 57 -54 57 -52 0 3 22 -17 49 -44 31 -31 55 -47 62 -42 7 4 9 3 6 -3 -3 -5 12 -27 35 -49 22 -21 38 -32 34 -24 -4 8 2 4 14 -10 12 -14 18 -19 14 -11 -5 10 -3 12 5 6 9 -5 3 -18 -23 -44 -20 -21 -33 -41 -29 -46 5 -4 2 -5 -5 0 -15 8 -115 -82 -106 -96 2 -4 -1 -11 -7 -15 -8 -5 -9 -3 -4 6 16 25 -14 4 -91 -66 -44 -39 -96 -86 -116 -104 -34 -29 -53 -61 -28 -45 16 10 11 -1 -7 -16 -11 -10 -14 -10 -9 -1 11 19 -8 14 -38 -9 -15 -12 -25 -27 -22 -35 3 -7 0 -16 -6 -20 -7 -5 -8 -2 -3 6 5 8 3 11 -6 8 -8 -3 -14 -11 -14 -19 0 -9 -18 -31 -40 -50 -22 -19 -34 -26 -26 -16 11 14 11 17 -1 17 -8 0 -23 9 -33 20 -10 11 -21 17 -25 15 -4 -3 -11 2 -14 11 -3 9 -11 12 -18 8 -7 -4 -10 -3 -5 1 11 12 -43 65 -60 58 -7 -3 -13 -2 -11 3 4 12 -27 55 -34 49 -3 -3 -5 3 -4 14 1 12 49 63 121 127 66 58 144 129 174 158 29 28 49 42 43 30 -11 -22 -72 -80 -234 -224 -53 -47 -94 -87 -92 -89 8 -9 54 23 60 41 3 10 13 17 22 16 9 -2 17 2 17 8 0 16 76 84 87 78 5 -3 7 -1 6 4 -3 9 111 122 123 122 9 0 26 51 28 81 1 28 -50 86 -67 75 -5 -3 -16 2 -23 12 -13 15 -12 16 4 3 9 -7 17 -9 17 -5 0 9 -231 222 -256 237 -7 4 -10 -2 -9 -17 4 -28 121 -142 145 -139 10 1 26 -8 36 -20 l19 -22 -23 19 c-12 11 -24 17 -27 14 -3 -3 28 -37 70 -77 43 -40 75 -79 75 -90 0 -13 -59 -73 -162 -167 -90 -81 -167 -158 -173 -172 -9 -23 -2 -32 94 -123 58 -55 113 -99 124 -99 10 0 67 44 126 98 58 53 147 133 196 178 50 44 136 122 193 173 57 51 102 100 102 110 0 11 -86 96 -207 207 -115 104 -248 226 -296 272 -54 50 -97 82 -111 82 -13 0 -59 -36 -124 -98z"/> <path d="M1045 1833 c-49 -47 -82 -80 -72 -73 14 11 21 10 40 -6 l22 -19 -18 21 c-17 21 -17 22 60 92 43 40 74 72 68 71 -5 0 -50 -38 -100 -86z"/> <path d="M307 946 c-15 -12 -16 -14 -2 -20 8 -3 15 -13 15 -21 0 -9 5 -13 11 -10 7 5 5 13 -6 25 -21 23 -2 38 23 18 15 -12 16 -11 3 5 -16 20 -20 21 -44 3z"/> <path d="M281 893 c28 -34 51 -55 56 -49 3 3 -8 19 -25 36 -33 32 -53 41 -31 13z"/> <path d="M590 585 c0 -8 61 -67 65 -63 5 4 -51 68 -59 68 -3 0 -6 -2 -6 -5z"/> <path d="M1800 230 c0 -5 -7 -10 -15 -10 -8 0 -15 -6 -15 -14 0 -8 -6 -16 -12 -19 -7 -2 -10 -7 -7 -11 4 -4 21 7 38 24 33 34 37 40 21 40 -5 0 -10 -4 -10 -10z"/> <path d="M1698 75 c-20 -19 -34 -37 -29 -39 4 -3 16 5 26 17 10 12 25 30 33 40 24 28 10 19 -30 -18z"/> </g> </svg> 