<?xml version="1.0" standalone="no"?>
<!DOCTYPE svg PUBLIC "-//W3C//DTD SVG 20010904//EN"
 "http://www.w3.org/TR/2001/REC-SVG-20010904/DTD/svg10.dtd">
<svg version="1.0" xmlns="http://www.w3.org/2000/svg"
 width="286.000000pt" height="286.000000pt" viewBox="0 0 286.000000 286.000000"
 preserveAspectRatio="xMidYMid meet">
<metadata>
Created by potrace 1.10, written by Peter Selinger 2001-2011
</metadata>
<g transform="translate(0.000000,286.000000) scale(0.100000,-0.100000)"
fill="#000000" stroke="none">
<path d="M225 2335 c-34 -33 -34 -87 0 -120 23 -24 30 -25 148 -25 l125 0 11
-27 c6 -16 107 -282 225 -593 117 -311 216 -572 220 -580 4 -10 -3 -21 -24
-33 -41 -25 -88 -96 -102 -156 -52 -227 225 -395 402 -243 63 53 84 103 85
195 l0 77 251 0 251 0 -10 -48 c-20 -98 38 -208 135 -256 120 -60 255 -18 326
102 38 65 39 165 1 237 -28 56 -91 109 -147 125 -23 6 -218 10 -517 10 l-480
0 -16 48 c-9 26 -19 54 -23 62 -5 13 60 15 559 15 552 0 565 0 584 20 12 11
38 77 60 150 21 72 76 248 120 392 45 145 81 274 81 288 0 14 -11 37 -25 50
l-24 25 -855 0 -854 0 -48 133 c-27 72 -59 142 -71 155 -21 21 -29 22 -193 22
-168 0 -171 0 -195 -25z m360 -23 c-2 -3 0 -10 5 -17 11 -13 69 -150 75 -175
8 -35 24 -66 45 -85 22 -20 38 -20 863 -23 771 -2 843 -4 860 -19 13 -12 16
-24 11 -43 -4 -14 -8 -34 -10 -45 -1 -11 -3 -21 -4 -22 -2 -2 -3 -6 -5 -10 -1
-5 -4 -15 -7 -23 -15 -38 -82 -268 -83 -285 -1 -5 -6 -19 -12 -30 -11 -21 -44
-128 -47 -155 -2 -8 -5 -22 -9 -30 -4 -8 -18 -48 -31 -88 -14 -40 -32 -79 -40
-88 -13 -13 -83 -14 -555 -12 -316 2 -537 0 -534 -6 3 -5 0 -7 -8 -4 -27 9
-64 -62 -39 -77 5 -3 6 -13 3 -22 -5 -12 -3 -14 7 -8 10 6 12 4 7 -8 -4 -10 5
-27 22 -46 l28 -30 476 -1 c399 0 482 -3 519 -16 23 -8 46 -21 51 -30 4 -8 11
-13 15 -10 4 2 16 -6 27 -17 11 -11 15 -17 8 -13 -6 3 -1 -13 12 -36 28 -52
28 -123 0 -183 -10 -22 -17 -43 -17 -48 1 -4 -4 -6 -10 -5 -7 2 -12 -2 -11 -8
1 -5 -7 -16 -19 -23 -11 -7 -17 -8 -14 -3 3 5 -11 1 -32 -10 -51 -26 -134 -21
-188 12 -21 14 -42 24 -47 22 -4 -1 -6 1 -5 5 1 5 -8 28 -21 53 -18 33 -23 60
-23 109 0 53 -5 70 -22 88 -21 22 -25 23 -267 23 l-245 0 -22 -29 c-16 -22
-20 -38 -15 -64 15 -96 -56 -201 -156 -231 -47 -14 -55 -13 -116 6 -36 12 -65
25 -65 30 0 5 -5 6 -12 2 -6 -4 -8 -3 -4 4 3 6 1 14 -7 19 -22 14 -51 93 -52
145 -1 31 6 63 16 83 10 18 15 36 11 41 -4 4 -1 4 6 0 7 -5 12 -1 12 10 0 10
3 14 7 11 8 -9 62 52 69 78 5 20 -35 141 -94 282 -16 40 -27 75 -24 78 3 3 0
5 -7 5 -7 0 -9 4 -6 10 3 5 -1 20 -9 32 -9 12 -16 28 -16 35 0 7 -11 36 -24
66 -14 29 -27 65 -30 80 -2 14 -11 41 -19 59 -15 36 -23 54 -88 228 -24 63
-47 117 -51 118 -5 2 -5 8 -2 13 3 6 1 15 -4 22 -6 7 -10 14 -10 17 -1 3 -5
18 -11 33 -6 15 -14 39 -17 52 -3 14 -10 25 -15 25 -5 0 -8 3 -8 8 4 23 -4 42
-27 66 -26 25 -31 26 -139 26 -99 0 -114 2 -130 20 -16 18 -17 23 -5 46 l14
25 163 -2 c90 -1 161 -4 158 -7z"/>
<path d="M785 1900 c-19 -21 -17 -60 6 -115 6 -16 14 -38 15 -47 14 -70 90
-178 114 -163 5 3 12 0 16 -6 4 -7 3 -9 -3 -6 -6 4 -15 -4 -20 -16 -11 -25 -6
-94 8 -103 5 -3 9 -11 9 -18 0 -8 8 -31 17 -52 9 -22 16 -42 15 -46 -1 -5 3
-8 10 -8 6 0 9 -3 5 -6 -3 -3 8 -19 24 -35 l30 -29 134 0 c105 0 137 3 149 15
8 8 20 15 26 15 6 0 9 4 5 9 -3 6 3 9 14 8 11 -1 18 -3 15 -6 -2 -2 8 -13 23
-23 24 -15 49 -18 165 -18 108 0 140 3 152 15 8 8 19 15 25 15 6 0 11 5 11 10
0 15 14 12 37 -9 12 -11 24 -17 27 -14 3 4 6 1 6 -5 0 -9 39 -12 138 -12 183
0 184 1 237 184 23 82 24 91 10 113 -9 13 -21 21 -28 17 -7 -3 -1 4 13 15 14
11 30 21 37 21 17 0 29 25 59 126 34 116 37 143 19 171 -15 23 -16 23 -234 23
-205 0 -219 -1 -236 -20 -10 -11 -21 -20 -25 -20 -4 0 -17 9 -30 20 -21 19
-37 20 -220 20 -184 0 -198 -1 -215 -20 -10 -11 -23 -20 -29 -20 -7 0 -19 9
-29 20 -16 19 -29 20 -250 20 -220 0 -235 -1 -252 -20z m1466 -150 l-39 -125
-192 -3 -192 -2 6 82 c4 46 9 104 12 130 l6 48 216 2 c120 2 218 1 219 -2 2
-3 -15 -61 -36 -130z m-975 113 c0 -10 4 -70 8 -133 l7 -115 -198 3 -199 3
-43 117 c-24 64 -46 123 -48 130 -4 9 47 12 234 12 221 0 239 -1 239 -17z
m486 -15 c-2 -18 -6 -77 -10 -131 l-7 -99 -185 2 c-101 0 -185 2 -186 3 -1 1
-4 59 -8 130 l-7 127 204 0 203 0 -4 -32z m54 -259 c12 -13 12 -19 -3 -36 -24
-27 -53 -37 -53 -18 0 8 -4 15 -9 15 -24 0 -19 32 8 48 16 10 26 23 24 32 -2
8 1 6 8 -5 6 -11 18 -27 25 -36z m-469 34 c-4 -3 5 -17 19 -30 l27 -24 -22
-15 c-12 -9 -19 -20 -16 -25 11 -16 -29 4 -48 24 -16 19 -16 21 0 41 19 22 35
36 42 36 2 0 1 -3 -2 -7z m-43 -175 c4 -46 9 -99 12 -118 l5 -35 -152 2 -152
1 -43 114 c-24 62 -44 114 -44 116 0 1 83 2 184 2 l184 0 6 -82z m432 50 c-3
-18 -8 -71 -11 -118 l-6 -85 -159 0 -158 0 -7 100 c-3 55 -9 108 -11 118 -5
16 8 17 176 17 l181 0 -5 -32z m444 26 c0 -3 -16 -56 -35 -118 l-35 -111 -155
0 -156 0 5 25 c3 14 8 67 12 118 l6 92 179 0 c98 0 179 -3 179 -6z"/>
<path d="M1032 853 c-7 -10 -10 -12 -7 -5 3 6 3 12 -1 12 -12 0 -54 -45 -54
-58 0 -7 -5 -21 -12 -31 -16 -26 8 -87 44 -114 30 -22 104 -35 92 -16 -4 7 -3
9 4 5 27 -17 92 49 75 77 -3 6 -1 7 5 3 17 -10 15 24 -3 68 -26 63 -114 98
-143 59z m93 -48 c69 -68 -23 -175 -102 -120 -41 29 -38 98 6 132 26 20 70 15
96 -12z"/>
<path d="M2004 853 c-35 -17 -69 -67 -58 -85 4 -7 3 -8 -5 -4 -13 9 -7 -32 13
-73 10 -23 53 -52 86 -59 20 -5 101 28 95 38 -3 5 3 13 12 19 23 12 25 103 4
123 -12 11 -13 10 -7 -2 4 -8 0 -6 -8 4 -9 11 -16 23 -16 26 0 10 -48 30 -68
29 -9 0 -31 -7 -48 -16z m101 -48 c65 -64 -14 -168 -94 -125 -10 5 -24 23 -31
40 -33 79 65 146 125 85z"/>
</g>
</svg>
