<?xml version="1.0" standalone="no"?>
<!DOCTYPE svg PUBLIC "-//W3C//DTD SVG 20010904//EN"
 "http://www.w3.org/TR/2001/REC-SVG-20010904/DTD/svg10.dtd">
<svg version="1.0" xmlns="http://www.w3.org/2000/svg"
 width="270.000000pt" height="270.000000pt" viewBox="0 0 270.000000 270.000000"
 preserveAspectRatio="xMidYMid meet">
<metadata>
Created by potrace 1.10, written by Peter Selinger 2001-2011
</metadata>
<g transform="translate(0.000000,270.000000) scale(0.100000,-0.100000)"
fill="#000000" stroke="none">
<path d="M711 1991 c-26 -24 -31 -37 -31 -73 0 -23 5 -50 10 -58 5 -8 121
-126 257 -262 l248 -247 -258 -259 c-258 -259 -263 -266 -257 -327 5 -56 74
-102 134 -89 23 5 92 68 285 261 l253 255 257 -255 c172 -171 265 -257 284
-261 69 -16 148 65 130 134 -6 23 -80 103 -262 285 l-254 253 246 243 c135
133 254 258 263 277 13 29 14 41 5 73 -16 52 -53 79 -109 79 l-46 0 -258 -257
-258 -258 -248 248 c-137 137 -255 253 -263 258 -8 5 -33 9 -55 9 -32 0 -49
-7 -73 -29z m1225 -8 c9 9 47 -30 40 -42 -4 -5 -2 -12 4 -16 16 -10 7 -53 -12
-58 -10 -3 -21 -13 -25 -24 -8 -22 -38 -53 -52 -53 -6 0 -7 -7 -4 -17 4 -10 2
-14 -4 -10 -6 4 -18 -4 -27 -18 -9 -14 -24 -25 -34 -25 -13 0 -14 -2 -3 -9 9
-6 10 -11 2 -15 -6 -4 -15 -4 -21 -1 -5 3 -10 1 -10 -4 0 -18 -42 -61 -59 -61
-14 0 -14 -1 -1 -10 8 -5 12 -10 8 -10 -5 0 -10 0 -13 0 -9 -1 -63 -60 -69
-76 -4 -9 -9 -14 -13 -11 -3 4 -14 -5 -25 -18 -11 -14 -25 -22 -31 -18 -7 4
-8 0 -4 -11 6 -14 3 -17 -9 -12 -11 4 -15 2 -11 -8 4 -9 1 -13 -6 -11 -7 3
-21 -13 -31 -35 -11 -24 -25 -39 -32 -36 -7 3 -15 -2 -18 -10 -3 -9 -1 -12 4
-9 6 3 10 0 10 -8 0 -8 9 -26 20 -39 10 -14 16 -29 12 -33 -4 -5 -2 -5 4 -2
13 8 95 -78 85 -89 -3 -4 -1 -5 4 -1 11 5 150 -128 150 -143 0 -5 4 -12 9 -17
6 -5 6 -2 1 7 -5 8 9 -3 31 -25 21 -21 39 -43 39 -47 0 -4 5 -8 10 -8 15 -1
84 -71 111 -113 16 -24 23 -46 20 -63 -5 -28 -35 -56 -50 -46 -5 3 -7 -2 -3
-10 8 -21 -26 -12 -75 20 -37 24 -51 39 -25 27 6 -3 4 0 -7 7 -45 31 -76 60
-71 68 3 5 0 12 -6 16 -8 5 -9 3 -4 -7 5 -8 -27 21 -71 65 -43 43 -78 84 -76
90 2 6 0 8 -4 3 -4 -4 -51 36 -103 88 -116 114 -140 133 -151 115 -4 -7 -13
-9 -20 -5 -8 5 -11 4 -6 -3 3 -6 -3 -13 -14 -17 -11 -3 -20 -11 -20 -16 0 -6
-5 -7 -12 -3 -8 5 -9 2 -5 -10 5 -13 3 -17 -7 -13 -10 4 -13 1 -9 -9 4 -10 0
-12 -11 -8 -11 4 -16 1 -16 -10 0 -9 -16 -26 -35 -37 -36 -22 -47 -36 -19 -25
14 5 15 4 4 -9 -7 -8 -18 -15 -24 -15 -6 0 -22 -16 -34 -34 -16 -24 -29 -33
-40 -29 -10 4 -14 2 -9 -2 9 -11 -22 -45 -41 -45 -8 0 -12 -6 -8 -15 3 -9 -3
-19 -17 -26 -12 -7 -26 -18 -30 -25 -4 -8 -15 -14 -23 -14 -9 0 -14 -7 -12
-17 2 -10 -1 -18 -7 -18 -13 0 -55 -42 -55 -56 0 -5 -4 -7 -10 -4 -17 10 -34
-6 -19 -17 10 -7 8 -8 -8 -5 -12 3 -24 0 -26 -6 -4 -12 -71 16 -83 35 -8 12
-13 81 -6 74 2 -3 17 11 34 30 17 19 35 31 42 27 6 -3 8 -2 3 2 -10 12 43 66
57 58 6 -3 7 -2 3 2 -10 11 143 166 156 158 6 -3 7 -2 4 4 -7 11 146 166 156
158 4 -3 5 -2 2 1 -2 4 7 21 20 39 14 17 25 39 25 47 0 9 -24 39 -52 68 -29
28 -53 57 -53 63 0 7 -5 12 -10 12 -15 0 -145 128 -145 142 0 6 -5 15 -12 19
-7 5 -8 3 -3 -7 5 -8 -12 6 -37 31 -25 25 -43 49 -40 54 3 5 1 6 -5 3 -12 -8
-84 69 -74 79 3 4 1 4 -6 1 -6 -4 -20 5 -32 20 -11 16 -29 37 -38 47 -10 11
-12 16 -5 12 8 -5 12 1 12 22 0 16 9 37 20 47 21 19 68 26 85 13 34 -26 74
-66 70 -72 -3 -3 -2 -4 2 -1 9 7 153 -137 147 -146 -2 -4 1 -11 7 -15 8 -5 9
-3 4 7 -5 8 14 -8 43 -35 29 -28 54 -58 58 -68 3 -10 9 -17 13 -15 5 1 38 -28
75 -65 36 -37 66 -64 66 -60 0 4 5 -1 11 -10 12 -22 37 -23 63 -3 10 8 24 12
30 8 6 -3 8 -2 3 2 -10 12 63 86 77 78 6 -3 8 -2 3 2 -9 10 51 75 69 75 7 0
16 5 20 12 5 7 2 8 -7 3 -8 -4 1 8 19 27 18 19 29 38 25 43 -5 4 2 5 15 2 12
-3 20 -2 18 2 -3 4 36 48 86 97 50 49 88 81 84 71 -3 -11 -2 -16 5 -12 6 4 8
13 5 20 -6 16 45 63 63 57 10 -3 11 0 5 9 -6 12 -5 12 9 0 10 -8 20 -11 23 -8z"/>
</g>
</svg>
